<?xml version="1.0" encoding="utf-8"?>
<!-- Generator: Adobe Illustrator 20.0.0, SVG Export Plug-In . SVG Version: 6.00 Build 0)  -->
<svg version="1.1" id="Layer_1" xmlns="http://www.w3.org/2000/svg" xmlns:xlink="http://www.w3.org/1999/xlink" x="0px" y="0px"
	 width="115.4px" height="74.3px" viewBox="0 0 115.4 74.3" style="enable-background:new 0 0 115.4 74.3;" xml:space="preserve">
<style type="text/css">
	.st0{fill:#FFFFFF;}
	.st1{font-family:'Mistral';}
	.st2{font-size:7px;}
	.st3{font-family:'ArialMT';}
	.st4{font-size:9px;}
	.st5{font-family:'Phosphate-Inline';}
	.st6{fill:#EFEF07;}
	.st7{fill:none;stroke:#000000;stroke-width:0.5;stroke-miterlimit:10;}
</style>
<g>
	<g>
		<path class="st0" d="M12,72.3c-5.5,0-10-4.5-10-10V12C2,6.5,6.5,2,12,2h91.4c5.5,0,10,4.5,10,10v50.3c0,5.5-4.5,10-10,10H12z"/>
		<path d="M103.4,4c4.4,0,8,3.6,8,8v50.3c0,4.4-3.6,8-8,8H12c-4.4,0-8-3.6-8-8V12c0-4.4,3.6-8,8-8H103.4 M103.4,0H12
			C5.4,0,0,5.4,0,12v50.3c0,6.6,5.4,12,12,12h91.4c6.6,0,12-5.4,12-12V12C115.4,5.4,110,0,103.4,0L103.4,0z"/>
	</g>
	<text transform="matrix(1 0 0 1 11.1471 59.9866)" class="st1 st2">Blast HardCheese</text>
	<text transform="matrix(0.9844 0 0 1 10.5436 44.2346)" class="st3 st4">1234  5678  9012  3456</text>
	<text transform="matrix(1 0 0 1 72.8941 16.0108)" class="st5 st2">THe BANK</text>
	<g>
		<path class="st6" d="M10.1,31.6c0,1.1,0.9,2,2,2h13.8c1.1,0,2-0.9,2-2v-8.8c0-1.1-0.9-2-2-2H12.1c-1.1,0-2,0.9-2,2V31.6z"/>
		<path class="st7" d="M10.1,31.6c0,1.1,0.9,2,2,2h13.8c1.1,0,2-0.9,2-2v-8.8c0-1.1-0.9-2-2-2H12.1c-1.1,0-2,0.9-2,2V31.6z"/>
	</g>
	<rect x="41.9" y="21.7" class="st6" width="0.3" height="2.1"/>
	<rect x="20.6" y="26.2" class="st6" width="0.3" height="2.1"/>
</g>
</svg>
